<svg height="512" viewBox="0 0 128 128" width="512" xmlns="http://www.w3.org/2000/svg"><g fill="rgb(0,0,0)"><path d="m32.688 104.638a5.753 5.753 0 0 0 -4.286 5.129h-6.012a5.33 5.33 0 0 0 0 10.66h6.01a5.753 5.753 0 0 0 5.728 5.32h62.4a5.753 5.753 0 0 0 5.728-5.32h6.012a5.33 5.33 0 0 0 0-10.66h-6.012a5.753 5.753 0 0 0 -4.283-5.129c-1.239-13.431-1.873-27.094-1.873-40.628 0-13.517.635-27.185 1.878-40.652a5.751 5.751 0 0 0 4.28-5.128h6.012a5.33 5.33 0 0 0 0-10.66h-6.012a5.753 5.753 0 0 0 -5.728-5.32h-62.4a5.753 5.753 0 0 0 -5.73 5.32h-6.01a5.336 5.336 0 0 0 -5.33 5.33 5.336 5.336 0 0 0 5.33 5.33h6.01a5.753 5.753 0 0 0 4.286 5.129 444.276 444.276 0 0 1 .002 81.279zm3.537-81.088h14.945v5.25h-3.53a1.75 1.75 0 0 0 0 3.5h5.28a1.751 1.751 0 0 0 1.75-1.75v-7h30.82v5.25h-3.53a1.75 1.75 0 0 0 0 3.5h5.28a1.75 1.75 0 0 0 1.75-1.75v-7h5.449c-1.22 13.407-1.839 27.009-1.839 40.46 0 13.468.618 27.065 1.838 40.437h-5.448v-8.037a1.75 1.75 0 0 0 -1.75-1.75h-5.28a1.75 1.75 0 0 0 0 3.5h3.53v6.287h-30.82v-8.037a1.751 1.751 0 0 0 -1.75-1.75h-5.28a1.75 1.75 0 0 0 0 3.5h3.53v6.287h-14.945a447.932 447.932 0 0 0 0-80.897zm-15.665 91.55a1.832 1.832 0 0 1 1.83-1.83h5.99v3.66h-5.99a1.832 1.832 0 0 1 -1.83-1.83zm89.54 0a1.833 1.833 0 0 1 -1.83 1.83h-5.99v-3.66h5.99a1.833 1.833 0 0 1 1.83 1.83zm-11.32-4.9v9.8a2.252 2.252 0 0 1 -2.25 2.25h-62.4a2.252 2.252 0 0 1 -2.25-2.25v-9.8a2.253 2.253 0 0 1 2.25-2.25h.142.028 62.06.028.142a2.253 2.253 0 0 1 2.25 2.25zm11.32-97.3a1.833 1.833 0 0 1 -1.83 1.83h-5.99v-3.66h5.99a1.833 1.833 0 0 1 1.83 1.83zm-89.54 0a1.828 1.828 0 0 1 .546-1.3 1.785 1.785 0 0 1 1.284-.528h5.99v3.66h-5.99a1.832 1.832 0 0 1 -1.83-1.832zm11.32 4.9v-9.8a2.252 2.252 0 0 1 2.25-2.25h62.4a2.252 2.252 0 0 1 2.25 2.25v9.8a2.252 2.252 0 0 1 -2.25 2.25h-62.4a2.252 2.252 0 0 1 -2.25-2.25z"/><path d="m76.685 42.558h5.275a1.75 1.75 0 0 0 0-3.5h-3.525v-11.3h3.525a1.75 1.75 0 0 0 0-3.5h-5.275a1.75 1.75 0 0 0 -1.75 1.75v14.8a1.75 1.75 0 0 0 1.75 1.75z"/><path d="m76.685 63.078h5.275a1.75 1.75 0 1 0 0-3.5h-3.525v-11.3h3.525a1.75 1.75 0 0 0 0-3.5h-5.275a1.75 1.75 0 0 0 -1.75 1.75v14.8a1.75 1.75 0 0 0 1.75 1.75z"/><path d="m76.685 83.439h5.275a1.75 1.75 0 1 0 0-3.5h-3.525v-11.3h3.525a1.75 1.75 0 0 0 0-3.5h-5.275a1.75 1.75 0 0 0 -1.75 1.75v14.8a1.75 1.75 0 0 0 1.75 1.75z"/><path d="m76.685 103.093h5.275a1.75 1.75 0 0 0 0-3.5h-3.525v-11.3h3.525a1.75 1.75 0 0 0 0-3.5h-5.275a1.75 1.75 0 0 0 -1.75 1.75v14.8a1.749 1.749 0 0 0 1.75 1.75z"/><path d="m81.96 38.058h3.525v11.3h-3.525a1.75 1.75 0 0 0 0 3.5h5.275a1.749 1.749 0 0 0 1.75-1.75v-14.8a1.749 1.749 0 0 0 -1.75-1.75h-5.275a1.75 1.75 0 0 0 0 3.5z"/><path d="m87.235 55.258h-5.275a1.75 1.75 0 0 0 0 3.5h3.525v11.3h-3.525a1.75 1.75 0 0 0 0 3.5h5.275a1.75 1.75 0 0 0 1.75-1.75v-14.8a1.75 1.75 0 0 0 -1.75-1.75z"/><path d="m87.235 74.958h-5.275a1.75 1.75 0 0 0 0 3.5h3.525v11.3h-3.525a1.75 1.75 0 0 0 0 3.5h5.275a1.75 1.75 0 0 0 1.75-1.75v-14.8a1.749 1.749 0 0 0 -1.75-1.75z"/><path d="m42.365 42.558h5.275a1.75 1.75 0 0 0 0-3.5h-3.525v-11.3h3.525a1.75 1.75 0 0 0 0-3.5h-5.275a1.75 1.75 0 0 0 -1.75 1.75v14.8a1.75 1.75 0 0 0 1.75 1.75z"/><path d="m42.365 63.078h5.275a1.75 1.75 0 0 0 0-3.5h-3.525v-11.3h3.525a1.75 1.75 0 0 0 0-3.5h-5.275a1.75 1.75 0 0 0 -1.75 1.75v14.8a1.75 1.75 0 0 0 1.75 1.75z"/><path d="m42.365 83.439h5.275a1.75 1.75 0 1 0 0-3.5h-3.525v-11.3h3.525a1.75 1.75 0 0 0 0-3.5h-5.275a1.75 1.75 0 0 0 -1.75 1.75v14.8a1.75 1.75 0 0 0 1.75 1.75z"/><path d="m42.365 103.093h5.275a1.75 1.75 0 0 0 0-3.5h-3.525v-11.3h3.525a1.75 1.75 0 0 0 0-3.5h-5.275a1.75 1.75 0 0 0 -1.75 1.75v14.8a1.749 1.749 0 0 0 1.75 1.75z"/><path d="m47.64 38.058h3.525v11.3h-3.525a1.75 1.75 0 0 0 0 3.5h5.275a1.75 1.75 0 0 0 1.75-1.75v-14.8a1.75 1.75 0 0 0 -1.75-1.75h-5.275a1.75 1.75 0 0 0 0 3.5z"/><path d="m52.915 55.258h-5.275a1.75 1.75 0 0 0 0 3.5h3.525v11.3h-3.525a1.75 1.75 0 0 0 0 3.5h5.275a1.751 1.751 0 0 0 1.75-1.75v-14.8a1.751 1.751 0 0 0 -1.75-1.75z"/><path d="m52.915 74.958h-5.275a1.75 1.75 0 0 0 0 3.5h3.525v11.3h-3.525a1.75 1.75 0 0 0 0 3.5h5.275a1.751 1.751 0 0 0 1.75-1.75v-14.8a1.75 1.75 0 0 0 -1.75-1.75z"/></g></svg>